<svg width="869" height="222" viewBox="0 0 869 222" fill="none" xmlns="http://www.w3.org/2000/svg">
<path fill-rule="evenodd" clip-rule="evenodd" d="M77.0947 76.1689H0L52.9571 152.338L107.891 119.555L77.0947 76.1689Z" fill="url(#paint0_linear_3926_13512)"/>
<path fill-rule="evenodd" clip-rule="evenodd" d="M180.755 76.1689L52.9571 152.338H128.803L180.755 76.1689Z" fill="url(#paint1_linear_3926_13512)"/>
<path fill-rule="evenodd" clip-rule="evenodd" d="M0 76.1689H77.0947L107.96 32.7824L52.9571 0L0 76.1689Z" fill="url(#paint2_linear_3926_13512)"/>
<path fill-rule="evenodd" clip-rule="evenodd" d="M180.755 76.1689L52.9571 0H128.803L180.755 76.1689Z" fill="url(#paint3_linear_3926_13512)"/>
<path d="M869 18.6468C869 20.3069 868.501 21.9298 867.566 23.3101C866.632 24.6904 865.304 25.7662 863.749 26.4015C862.195 27.0368 860.485 27.2031 858.835 26.8792C857.185 26.5554 855.669 25.7559 854.48 24.582C853.29 23.4081 852.48 21.9126 852.152 20.2843C851.824 18.6561 851.992 16.9684 852.636 15.4347C853.28 13.9009 854.37 12.59 855.769 11.6677C857.167 10.7454 858.812 10.2531 860.494 10.2531C862.75 10.2531 864.914 11.1375 866.509 12.7116C868.104 14.2857 869 16.4207 869 18.6468ZM867.854 18.6468C867.848 17.2118 867.41 15.8109 866.597 14.621C865.784 13.4311 864.632 12.5056 863.287 11.9611C861.942 11.4166 860.463 11.2776 859.037 11.5617C857.612 11.8458 856.304 12.5403 855.278 13.5574C854.252 14.5745 853.554 15.8687 853.273 17.2767C852.992 18.6846 853.14 20.1432 853.698 21.4684C854.256 22.7936 855.199 23.9258 856.409 24.7224C857.618 25.519 859.04 25.9441 860.494 25.9441C862.45 25.935 864.321 25.1622 865.701 23.7947C867.08 22.4272 867.854 20.5763 867.854 18.6468ZM862.057 19.3663L864.626 23.2718H862.647L860.321 19.5718H859.001V23.2718H857.37V13.9874H860.842C861.218 13.9783 861.593 14.0432 861.944 14.1781C862.295 14.3131 862.616 14.5155 862.887 14.7737C863.158 15.0318 863.375 15.3405 863.525 15.6819C863.674 16.0233 863.753 16.3906 863.758 16.7625C863.789 17.3181 863.641 17.8691 863.335 18.3367C863.03 18.8044 862.582 19.1648 862.057 19.3663ZM859.001 18.1671H860.737C860.92 18.1717 861.101 18.1408 861.271 18.0761C861.442 18.0114 861.597 17.9142 861.73 17.7901C861.862 17.666 861.968 17.5175 862.042 17.3529C862.116 17.1883 862.156 17.011 862.161 16.8311C862.156 16.6526 862.116 16.4768 862.041 16.314C861.967 16.1513 861.86 16.0049 861.728 15.8835C861.595 15.7621 861.439 15.6682 861.269 15.6074C861.099 15.5465 860.918 15.52 860.737 15.5292H859.001V18.1671ZM550.018 37.524H562.69V113.238H549.879L550.018 37.524ZM503.185 35.8453C495.017 35.8425 487.101 38.6399 480.792 43.7593V37.524H468.016V113.238H480.792V70.5506C480.792 64.6899 483.151 59.0693 487.351 54.9251C491.55 50.781 497.246 48.4529 503.185 48.4529C509.124 48.4529 514.819 50.781 519.019 54.9251C523.218 59.0693 525.577 64.6899 525.577 70.5506V113.238H538.388V70.5506C538.388 65.9901 537.477 61.4744 535.708 57.2615C533.938 53.0486 531.344 49.2212 528.075 45.9981C524.806 42.775 520.925 40.2193 516.654 38.4772C512.383 36.7351 507.806 35.8408 503.185 35.8453ZM442.43 37.4898H455.24V110.361C455.01 120.772 450.714 130.693 443.249 138.053C435.784 145.413 425.727 149.644 415.177 149.862C406.642 150.08 398.272 147.511 391.368 142.556C384.463 137.6 379.408 130.534 376.988 122.454H390.875C393 127.005 396.44 130.835 400.764 133.462C405.088 136.089 410.102 137.397 415.177 137.22C422.328 136.981 429.12 134.071 434.179 129.078C439.238 124.086 442.187 117.383 442.43 110.326V104.228C436.718 109.471 429.58 112.954 421.891 114.25C414.202 115.546 406.296 114.599 399.145 111.525C391.994 108.451 385.907 103.384 381.632 96.945C377.358 90.5062 375.081 82.9761 375.081 75.2785C375.081 67.5809 377.358 60.0506 381.632 53.6119C385.907 47.1731 391.994 42.1058 399.145 39.0318C406.296 35.9579 414.202 35.0109 421.891 36.3071C429.58 37.6033 436.718 41.0863 442.43 46.3288V37.4898ZM442.43 75.1757C442.43 69.8566 440.831 64.6568 437.837 60.2341C434.842 55.8114 430.586 52.3643 425.606 50.3288C420.626 48.2932 415.146 47.7606 409.86 48.7983C404.573 49.836 399.717 52.3975 395.906 56.1587C392.094 59.9199 389.499 64.712 388.447 69.9289C387.396 75.1458 387.935 80.5533 389.998 85.4676C392.061 90.3818 395.554 94.5821 400.036 97.5373C404.517 100.492 409.787 102.07 415.177 102.07C422.375 102.07 429.28 99.2599 434.386 94.2533C439.492 89.2466 442.384 82.45 442.43 75.3469V75.1757ZM244.541 48.2816C249.732 48.2773 254.815 49.7355 259.194 52.4849C263.573 55.2342 267.065 59.1603 269.26 63.8014H282.904C280.138 54.713 274.151 46.9098 266.037 41.8166C257.923 36.7234 248.223 34.6801 238.709 36.0598C229.195 37.4395 220.501 42.1501 214.215 49.3316C207.929 56.513 204.471 65.6861 204.471 75.1757C204.471 84.6653 207.929 93.8383 214.215 101.02C220.501 108.201 229.195 112.912 238.709 114.291C248.223 115.671 257.923 113.628 266.037 108.535C274.151 103.442 280.138 95.6383 282.904 86.5499H269.26C267.195 90.9167 263.978 94.6557 259.947 97.3758C255.916 100.096 251.219 101.697 246.346 102.012C241.473 102.327 236.604 101.344 232.247 99.1662C227.891 96.9882 224.208 93.6952 221.583 89.6315C218.958 85.5678 217.488 80.8827 217.326 76.0663C217.165 71.2499 218.317 66.4791 220.664 62.2528C223.01 58.0266 226.465 54.5001 230.665 52.0423C234.866 49.5845 239.658 48.2857 244.541 48.2816ZM369.037 75.1757C369.044 82.9981 366.7 90.6467 362.3 97.1536C357.9 103.66 351.644 108.733 344.322 111.73C336.999 114.726 328.941 115.512 321.166 113.988C313.392 112.463 306.25 108.697 300.645 103.166C295.039 97.6347 291.223 90.587 289.678 82.9146C288.134 75.2422 288.93 67.29 291.966 60.0643C295.003 52.8387 300.144 46.6644 306.737 42.3227C313.331 37.9811 321.082 35.6672 329.009 35.674C334.273 35.6875 339.483 36.7245 344.34 38.726C349.198 40.7275 353.609 43.6541 357.32 47.3386C361.031 51.023 363.97 55.3929 365.968 60.1988C367.967 65.0046 368.986 70.1521 368.968 75.3469L369.037 75.1757ZM356.262 75.1757C356.262 69.8566 354.663 64.6568 351.669 60.2341C348.674 55.8114 344.418 52.3643 339.438 50.3288C334.458 48.2932 328.978 47.7606 323.692 48.7983C318.405 49.836 313.549 52.3975 309.738 56.1587C305.926 59.9199 303.331 64.712 302.279 69.9289C301.228 75.1458 301.767 80.5533 303.83 85.4676C305.893 90.3818 309.386 94.5821 313.868 97.5373C318.349 100.492 323.618 102.07 329.009 102.07C336.192 102.043 343.074 99.222 348.163 94.2193C353.252 89.2165 356.137 82.4353 356.192 75.3469L356.262 75.1757ZM774.465 35.8453C766.297 35.8425 758.382 38.6399 752.072 43.7593V37.524H739.297V113.238H752.072V70.5506C752.072 64.6899 754.432 59.0693 758.631 54.9251C762.83 50.781 768.526 48.4529 774.465 48.4529C780.404 48.4529 786.1 50.781 790.299 54.9251C794.498 59.0693 796.858 64.6899 796.858 70.5506V113.238H809.668V70.5506C809.668 65.9901 808.758 61.4744 806.988 57.2615C805.218 53.0486 802.625 49.2212 799.355 45.9981C796.086 42.775 792.205 40.2193 787.934 38.4772C783.663 36.7351 779.086 35.8408 774.465 35.8453ZM713.71 37.524H726.521V113.238H713.71V104.297C708.926 108.657 703.137 111.799 696.845 113.451C690.552 115.104 683.946 115.217 677.599 113.78C671.252 112.343 665.357 109.399 660.423 105.205C655.49 101.011 651.668 95.6925 649.289 89.7109C646.91 83.7292 646.046 77.2652 646.771 70.8793C647.496 64.4934 649.789 58.3784 653.451 53.0648C657.112 47.7513 662.032 43.3995 667.784 40.3868C673.536 37.3742 679.945 35.7918 686.457 35.7768C696.567 35.7653 706.305 39.5359 713.71 46.3288V37.524ZM713.71 75.2099C713.71 69.8907 712.112 64.6911 709.117 60.2684C706.122 55.8457 701.866 52.3986 696.886 50.3631C691.906 48.3275 686.427 47.7949 681.14 48.8326C675.854 49.8703 670.998 52.4318 667.186 56.193C663.375 59.9541 660.779 64.7462 659.728 69.9631C658.676 75.18 659.216 80.5876 661.278 85.5019C663.341 90.4161 666.834 94.6163 671.316 97.5715C675.798 100.527 681.067 102.104 686.457 102.104C690.036 102.122 693.583 101.444 696.897 100.109C700.21 98.7744 703.225 96.8085 705.768 94.3238C708.312 91.8392 710.335 88.8845 711.721 85.6285C713.108 82.3724 713.831 78.8787 713.849 75.3469L713.71 75.2099ZM852.405 49.9946V37.387H833.484V16.8311H820.674V87.9546C820.674 94.6512 823.369 101.074 828.168 105.809C832.966 110.544 839.474 113.204 846.26 113.204H852.648V100.596H846.26C842.869 100.587 839.619 99.2516 837.224 96.8817C834.829 94.5119 833.484 91.3015 833.484 87.9546V50.1317L852.405 49.9946ZM556.441 10.2188C554.757 10.2188 553.111 10.712 551.712 11.6358C550.312 12.5597 549.222 13.8727 548.579 15.4084C547.937 16.9442 547.77 18.6336 548.101 20.2627C548.432 21.8918 549.246 23.3874 550.439 24.5599C551.632 25.7324 553.151 26.5291 554.803 26.8491C556.455 27.1691 558.167 26.998 559.72 26.3574C561.274 25.7169 562.6 24.6357 563.53 23.2508C564.461 21.866 564.954 20.2398 564.947 18.5782C564.947 17.4776 564.726 16.3877 564.299 15.3713C563.871 14.3548 563.244 13.4318 562.453 12.6551C561.663 11.8784 560.725 11.2634 559.693 10.8453C558.662 10.4272 557.556 10.2143 556.441 10.2188ZM639.762 37.6267H575.744V50.2687H623.098L575.744 100.734V113.341H639.693V100.734H592.304L639.658 50.2687L639.762 37.6267Z" fill="#00004A"/>
<path d="M829.926 171.256C824.81 171.252 819.853 173.026 815.903 176.275V172.324H807.891V220.325H815.903V193.254C815.903 189.537 817.381 185.972 820.01 183.344C822.64 180.715 826.207 179.239 829.926 179.239C833.645 179.239 837.211 180.715 839.841 183.344C842.471 185.972 843.948 189.537 843.948 193.254V220.325H851.961V193.254C851.954 187.418 849.629 181.822 845.497 177.698C841.366 173.573 835.765 171.256 829.926 171.256Z" fill="#06C7CC"/>
<path d="M498.986 195.395C497.156 194.446 495.225 193.708 493.23 193.192C491.147 192.645 489.043 192.178 486.96 191.804C485.052 191.473 483.165 191.027 481.311 190.469C479.787 190.047 478.394 189.246 477.264 188.14C476.698 187.522 476.273 186.788 476.017 185.99C475.761 185.192 475.681 184.348 475.783 183.516C475.884 182.684 476.165 181.884 476.605 181.17C477.045 180.457 477.634 179.847 478.333 179.383C480.089 178.155 482.426 177.535 485.277 177.535C487.887 177.451 490.457 178.191 492.622 179.65C493.543 180.25 494.329 181.034 494.93 181.953C495.531 182.872 495.935 183.906 496.114 184.99L496.155 185.27H504.127L504.08 184.896C503.842 182.852 503.174 180.881 502.121 179.112C501.069 177.343 499.654 175.817 497.971 174.631C494.334 172.052 489.962 170.716 485.504 170.82C480.289 170.82 476.036 172.115 472.857 174.665C471.324 175.838 470.089 177.355 469.252 179.095C468.416 180.834 468.002 182.746 468.043 184.676C467.99 186.714 468.434 188.735 469.338 190.563C470.119 192.116 471.305 193.43 472.771 194.367C474.262 195.281 475.85 196.029 477.505 196.596C479.269 197.218 481.086 197.678 482.933 197.971C484.756 198.258 486.553 198.638 488.275 199.072C489.849 199.472 491.397 199.969 492.909 200.561C494.165 201.049 495.263 201.873 496.081 202.943C496.895 204.072 497.312 205.437 497.27 206.828C497.287 207.94 497.028 209.04 496.515 210.028C496.002 211.016 495.252 211.861 494.332 212.487C492.328 213.969 489.657 214.716 486.426 214.716C483.501 214.818 480.619 213.986 478.199 212.34C477.157 211.618 476.284 210.678 475.639 209.586C474.995 208.493 474.595 207.275 474.467 206.013V205.72H466.875L466.915 206.087C467.091 208.305 467.732 210.462 468.796 212.416C469.86 214.371 471.323 216.08 473.091 217.433C476.683 220.203 481.277 221.611 486.746 221.611C491.968 221.611 496.361 220.196 499.807 217.4C501.458 216.134 502.791 214.501 503.699 212.629C504.606 210.758 505.064 208.7 505.035 206.621C505.096 204.179 504.499 201.765 503.306 199.633C502.293 197.842 500.796 196.374 498.986 195.395Z" fill="#06C7CC"/>
<path d="M533.08 171.17C529.793 171.097 526.527 171.701 523.484 172.945C520.441 174.188 517.686 176.045 515.392 178.398C510.598 183.226 508.201 189.168 508.201 196.225C508.201 203.282 510.598 209.224 515.392 214.052C520.122 218.684 526.481 221.279 533.104 221.279C539.726 221.279 546.085 218.684 550.815 214.052C555.645 209.228 558.06 203.286 558.06 196.225C558.06 189.164 555.65 183.221 550.829 178.398C548.521 176.046 545.756 174.191 542.703 172.948C539.651 171.704 536.376 171.099 533.08 171.17ZM545.767 209.166C544.113 210.84 542.142 212.169 539.97 213.076C537.798 213.983 535.468 214.449 533.114 214.449C530.76 214.449 528.429 213.983 526.257 213.076C524.085 212.169 522.115 210.84 520.46 209.166C517.165 205.654 515.331 201.02 515.331 196.205C515.331 191.39 517.165 186.756 520.46 183.244C523.822 179.891 528.378 178.008 533.127 178.008C537.876 178.008 542.432 179.891 545.794 183.244C549.112 186.736 550.962 191.369 550.962 196.185C550.962 201.001 549.112 205.634 545.794 209.126L545.767 209.166Z" fill="#06C7CC"/>
<path d="M584.188 149.457C579.12 149.457 575.08 150.892 572.169 153.735C569.258 156.578 567.815 160.816 567.815 166.329V171.849H558.28V179.237H567.815V220.617H575.694V179.237H589.289V171.849H575.694V166.429C575.694 159.982 578.893 156.845 585.47 156.845C586.616 156.83 587.76 156.955 588.875 157.219L589.289 157.326V149.984L589.022 149.931C587.431 149.608 585.811 149.449 584.188 149.457Z" fill="#06C7CC"/>
<path d="M602.13 158.881H594.872V204.159C594.872 209.672 596.289 213.823 599.125 216.613C601.961 219.403 605.898 220.798 610.937 220.798C612.508 220.807 614.076 220.643 615.611 220.311V213.683C614.522 213.969 613.398 214.1 612.273 214.07C605.529 214.07 602.159 210.733 602.163 204.059V178.904H615.611V172.183H602.13V158.881Z" fill="#06C7CC"/>
<path d="M643.849 210.145L628.338 172.109H619.871L640.531 220.337H647.228L667.787 172.109H659.227L643.849 210.145Z" fill="#06C7CC"/>
<path d="M722.535 195.395C720.706 194.446 718.775 193.707 716.779 193.192C714.703 192.645 712.593 192.178 710.509 191.804C708.603 191.472 706.719 191.027 704.867 190.469C703.343 190.047 701.951 189.246 700.821 188.14C700.252 187.523 699.825 186.789 699.567 185.991C699.31 185.192 699.23 184.348 699.331 183.515C699.433 182.682 699.714 181.882 700.156 181.168C700.597 180.455 701.189 179.846 701.889 179.383C703.645 178.155 705.982 177.535 708.833 177.535C711.43 177.457 713.985 178.197 716.138 179.65C717.061 180.247 717.848 181.031 718.45 181.95C719.051 182.87 719.454 183.905 719.63 184.99L719.677 185.27H727.663L727.617 184.896C727.378 182.851 726.71 180.879 725.656 179.11C724.601 177.342 723.185 175.815 721.5 174.631C717.866 172.053 713.496 170.717 709.04 170.82C703.825 170.82 699.565 172.115 696.393 174.665C694.859 175.837 693.623 177.355 692.785 179.094C691.948 180.834 691.532 182.746 691.572 184.676C691.522 186.714 691.967 188.734 692.868 190.562C693.653 192.115 694.841 193.429 696.307 194.367C697.798 195.281 699.386 196.028 701.041 196.596C702.805 197.219 704.622 197.679 706.47 197.971C708.286 198.258 710.082 198.638 711.811 199.072C713.384 199.471 714.929 199.968 716.439 200.56C717.697 201.045 718.795 201.87 719.61 202.943C720.429 204.069 720.849 205.436 720.806 206.827C720.823 207.94 720.564 209.04 720.051 210.028C719.538 211.016 718.788 211.861 717.868 212.487C715.864 213.969 713.194 214.716 709.962 214.716C707.037 214.818 704.155 213.986 701.735 212.34C700.693 211.617 699.819 210.677 699.174 209.585C698.529 208.493 698.127 207.275 697.996 206.013V205.72H690.411L690.451 206.087C690.624 208.306 691.264 210.463 692.328 212.418C693.392 214.373 694.857 216.082 696.627 217.433C700.213 220.203 704.814 221.611 710.282 221.611C715.497 221.611 719.891 220.196 723.343 217.399C724.994 216.134 726.327 214.501 727.235 212.629C728.143 210.758 728.6 208.7 728.571 206.621C728.651 204.184 728.074 201.771 726.902 199.633C725.877 197.835 724.363 196.365 722.535 195.395Z" fill="#06C7CC"/>
<path d="M777.222 171.17C773.935 171.098 770.669 171.703 767.626 172.946C764.583 174.19 761.828 176.045 759.533 178.398C754.757 183.212 752.369 189.155 752.369 196.225C752.369 203.295 754.764 209.237 759.553 214.051C764.282 218.674 770.634 221.263 777.248 221.263C783.863 221.263 790.214 218.674 794.943 214.051C798.487 210.553 800.909 206.078 801.897 201.198C802.886 196.318 802.398 191.254 800.495 186.653C798.592 182.051 795.36 178.121 791.213 175.363C787.065 172.606 782.189 171.146 777.208 171.17H777.222ZM789.908 209.166C788.253 210.84 786.282 212.169 784.11 213.076C781.937 213.983 779.606 214.45 777.252 214.45C774.897 214.45 772.566 213.983 770.393 213.076C768.221 212.169 766.25 210.84 764.595 209.166C761.3 205.654 759.466 201.02 759.466 196.205C759.466 191.39 761.3 186.756 764.595 183.244C767.957 179.891 772.512 178.008 777.262 178.008C782.011 178.008 786.566 179.891 789.928 183.244C793.245 186.737 795.094 191.369 795.094 196.185C795.094 201 793.245 205.633 789.928 209.126L789.908 209.166Z" fill="#06C7CC"/>
<path d="M674.819 220.303H682.845V172.256H674.906L674.819 220.303Z" fill="#06C7CC"/>
<path d="M678.952 154.917C677.896 154.917 676.863 155.23 675.984 155.816C675.106 156.403 674.421 157.237 674.017 158.213C673.613 159.188 673.507 160.262 673.713 161.298C673.919 162.333 674.428 163.285 675.175 164.031C675.922 164.778 676.874 165.287 677.91 165.493C678.946 165.699 680.02 165.593 680.996 165.189C681.972 164.785 682.807 164.1 683.394 163.222C683.981 162.344 684.294 161.312 684.294 160.256C684.294 158.84 683.731 157.482 682.729 156.48C681.728 155.479 680.369 154.917 678.952 154.917Z" fill="#06C7CC"/>
<path d="M736.891 220.303H744.917V172.256H736.977L736.891 220.303Z" fill="#06C7CC"/>
<path d="M741.018 154.917C739.961 154.917 738.928 155.23 738.05 155.817C737.171 156.403 736.487 157.237 736.083 158.213C735.678 159.188 735.572 160.262 735.778 161.298C735.985 162.333 736.493 163.285 737.24 164.032C737.988 164.778 738.939 165.287 739.976 165.493C741.012 165.699 742.086 165.593 743.062 165.189C744.038 164.785 744.872 164.101 745.459 163.222C746.046 162.344 746.36 161.312 746.36 160.256C746.365 159.553 746.23 158.857 745.964 158.207C745.697 157.556 745.304 156.966 744.807 156.469C744.31 155.972 743.719 155.579 743.068 155.312C742.418 155.046 741.721 154.911 741.018 154.917Z" fill="#06C7CC"/>
<defs>
<linearGradient id="paint0_linear_3926_13512" x1="-1.97922" y1="109.138" x2="106.058" y2="109.138" gradientUnits="userSpaceOnUse">
<stop stop-color="#3D54CE"/>
<stop offset="1" stop-color="#35CACF"/>
</linearGradient>
<linearGradient id="paint1_linear_3926_13512" x1="46.1445" y1="109.138" x2="174.14" y2="109.138" gradientUnits="userSpaceOnUse">
<stop stop-color="#13457D"/>
<stop offset="1" stop-color="#279698"/>
</linearGradient>
<linearGradient id="paint2_linear_3926_13512" x1="-0.574309" y1="32.8708" x2="107.543" y2="32.8708" gradientUnits="userSpaceOnUse">
<stop stop-color="#090086"/>
<stop offset="1" stop-color="#2F96A9"/>
</linearGradient>
<linearGradient id="paint3_linear_3926_13512" x1="46.1445" y1="32.8708" x2="174.14" y2="32.8708" gradientUnits="userSpaceOnUse">
<stop stop-color="#3B62CA"/>
<stop offset="1" stop-color="#93DFE3"/>
</linearGradient>
</defs>
</svg>
